<svg width="48" height="195" viewBox="0 0 48 195" xmlns="http://www.w3.org/2000/svg"><title>icons</title><g fill="#FFF" fill-rule="evenodd"><path d="M30.027 12l-5.975-6.036-5.974 6.037h11.95zM12.123 4.999l4.155 5.995 5.934-5.995h-10.09zM43.48 12l-5.625-5.884L33.778 12h9.703zM25.893 4.998l6.072 6.135 4.252-6.135H25.893zM4.523 12l5.82-6.089 4.219 6.089H4.522zm10.72 1.953H4.153l18.09 26.007-7-26.007zM47 12.806L37.636 3l-27.27.01L1 12.826 23.995 46 47 12.806zm-16.039 1.148L23.976 39.16l-6.685-25.206h13.67zm2.047 0L25.8 40.001l18.053-26.047H33.008zM48 88V51H0v37h48zm-29 0h-2v5h2v-5zm12 0h-2v5h2v-5zM2 86h44v-8H2v8zm0-33h44v23H2V53zm25 28v2h-6v-2h6zm6 12v2H15v-2h18zM25 129.083V103h-2v26.083A6.002 6.002 0 0 0 24 141a6 6 0 0 0 1-11.917zm15-14.166V141h-2v-26.083A6.002 6.002 0 0 1 39 103a6 6 0 0 1 1 11.917zm-30 11V141H8v-15.083a6.002 6.002 0 0 1 0-11.834V103h2v11.083a6.002 6.002 0 0 1 0 11.834zM9 124a4 4 0 1 0 0-8 4 4 0 0 0 0 8zm30-11a4 4 0 1 0 0-8 4 4 0 0 0 0 8zm-15 26a4 4 0 1 0 0-8 4 4 0 0 0 0 8zM27 188.751V192h-6v-3.249a17.904 17.904 0 0 1-7.43-3.079l-2.298 2.299-4.243-4.243 2.299-2.298a17.904 17.904 0 0 1-3.08-7.43H3v-6h3.249a17.904 17.904 0 0 1 3.079-7.43l-2.299-2.298 4.243-4.243 2.298 2.299a17.904 17.904 0 0 1 7.43-3.08V150h6v3.249a17.904 17.904 0 0 1 7.43 3.079l2.298-2.299 4.243 4.243-2.299 2.298a17.904 17.904 0 0 1 3.08 7.43H45v6h-3.249a17.904 17.904 0 0 1-3.079 7.43l2.299 2.298-4.243 4.243-2.298-2.299a17.904 17.904 0 0 1-7.43 3.08zm14.23-27.91A19.88 19.88 0 0 1 43.37 166H47v10h-3.63a19.88 19.88 0 0 1-2.14 5.16l2.569 2.568-7.071 7.071-2.568-2.568A19.88 19.88 0 0 1 29 190.37V194H19v-3.63a19.88 19.88 0 0 1-5.16-2.14l-2.568 2.569-7.071-7.071 2.568-2.568A19.88 19.88 0 0 1 4.63 176H1v-10h3.63a19.88 19.88 0 0 1 2.14-5.16L4.2 158.272l7.071-7.071 2.568 2.568A19.88 19.88 0 0 1 19 151.63V148h10v3.63a19.88 19.88 0 0 1 5.16 2.14l2.568-2.569 7.071 7.071-2.568 2.568zM24 176.874a5.875 5.875 0 1 0 0-11.75 5.875 5.875 0 0 0 0 11.75zm0-2.25a3.625 3.625 0 1 0 0-7.25 3.625 3.625 0 0 0 0 7.25z"/></g></svg>