<?xml version="1.0" encoding="UTF-8" standalone="no"?>
<svg width="164px" height="42px" viewBox="0 0 164 42" version="1.1" xmlns="http://www.w3.org/2000/svg" xmlns:xlink="http://www.w3.org/1999/xlink">
    <!-- Generator: Sketch 39.1 (31720) - http://www.bohemiancoding.com/sketch -->
    <title>main-logo.png</title>
    <desc>Created with Sketch.</desc>
    <defs></defs>
    <g id="Page-1" stroke="none" stroke-width="1" fill="none" fill-rule="evenodd">
        <polygon id="ADMedium-path" fill="#E8183F" points="16 0 79 0 79 42 0 42"></polygon>
        <path d="M32.586,31.547 L36.453,31.547 L28.382,10.219 L25.057,10.219 L17,31.547 L20.853,31.547 L22.581,26.581 L30.843,26.581 L32.586,31.547 Z M26.712,14.747 L29.803,23.595 L23.621,23.595 L26.712,14.747 Z M45.128,31.547 C46.9135394,31.5810676 48.6774689,31.1521433 50.248,30.302 C51.7214224,29.4877193 52.9195051,28.2537846 53.69,26.757 C54.5233757,25.1054237 54.9385266,23.2745018 54.899,21.425 L54.899,20.355 C54.934423,18.517191 54.5226015,16.6983128 53.699,15.055 C52.942121,13.5579532 51.7632359,12.3154479 50.308,11.481 C48.7772969,10.6227629 47.0455723,10.187847 45.291,10.221 L38.991,10.221 L38.991,31.549 L45.129,31.549 L45.128,31.547 Z M45.289,13.207 C46.9541022,13.1004189 48.5736785,13.7763517 49.669,15.035 C50.7724675,16.5696672 51.306116,18.44115 51.178,20.327 L51.178,21.512 C51.2849811,23.3873336 50.7217799,25.239624 49.589,26.738 C48.4516926,27.9942841 46.8043277,28.6644922 45.113,28.559 L42.696,28.559 L42.696,13.207 L45.286,13.207 L45.289,13.207 Z M58.437,10.219 L58.437,31.547 L62.128,31.547 L62.128,24.516 L61.762,15.126 L68.046,31.547 L70.698,31.547 L76.998,15.111 L76.631,24.511 L76.631,31.542 L80.323,31.542 L80.323,10.219 L75.533,10.219 L69.395,26.566 L63.243,10.219 L58.443,10.219 L58.437,10.219 Z M94.76,31.056 C95.7881049,30.5620856 96.6656677,29.8025899 97.302,28.856 L95.383,27.025 C94.4555319,28.2940478 92.9675309,29.0311439 91.396,29 C90.3153107,29.0325378 89.2687986,28.6192126 88.502,27.857 C87.7010916,27.0164281 87.2348669,25.9122117 87.191,24.752 L97.548,24.752 L97.548,23.316 C97.6814976,21.2191432 97.0548865,19.1444039 95.783,17.472 C94.5185202,16.0569946 92.6774951,15.296283 90.783,15.406 C89.4783722,15.3913936 88.197084,15.7524177 87.092,16.446 C85.976863,17.1522508 85.0852655,18.1607166 84.521,19.354 C83.8935066,20.6783513 83.5803688,22.1297365 83.606,23.595 L83.606,24.034 C83.505009,26.1328508 84.2632607,28.1822968 85.706,29.71 C87.1585146,31.1521704 89.1458038,31.9246227 91.191,31.842 C92.4245143,31.8598698 93.6453003,31.5907902 94.757,31.056 L94.76,31.056 Z M93.083,19.176 C93.697504,19.9419067 94.0332227,20.8940504 94.035,21.876 L94.035,22.14 L87.253,22.14 C87.3459136,21.0950281 87.7460549,20.1009379 88.403,19.283 C89.6654517,17.9630255 91.7585042,17.9151408 93.08,19.176 L93.083,19.176 Z M101.397,29.599 C102.438124,31.039476 104.120054,31.8770773 105.897,31.84 C107.542674,31.8995926 109.120958,31.1835707 110.16,29.906 L110.336,31.547 L113.558,31.547 L113.558,9.047 L109.999,9.047 L109.999,17.162 C108.974164,15.9941675 107.47876,15.3487169 105.926,15.404 C104.13479,15.3490348 102.431297,16.179277 101.371,17.624 C100.165461,19.3404311 99.5671946,21.4100814 99.671,23.505 C99.5524109,25.6716478 100.158629,27.8161042 101.394,29.6 L101.397,29.599 Z M104.173,19.689 C104.759123,18.7955151 105.771315,18.2753716 106.839,18.319 C108.182756,18.2521801 109.433336,19.0051365 110.003,20.224 L110.003,26.991 C109.431297,28.2274432 108.169994,28.9967037 106.809,28.939 C105.750942,28.9826516 104.747457,28.4683845 104.165,27.584 C103.483588,26.4484457 103.159547,25.134162 103.235,23.812 C103.135978,22.3757424 103.461108,20.9420415 104.17,19.689 L104.173,19.689 Z M120.828,15.697 L117.266,15.697 L117.266,31.547 L120.825,31.547 L120.825,15.7 L120.828,15.697 Z M117.569,12.917 C117.967481,13.296708 118.506768,13.4921858 119.056,13.456 C119.607153,13.4909762 120.148129,13.2958049 120.55,12.917 C120.902201,12.5571503 121.092508,12.0692864 121.077,11.566 C121.093286,11.0563546 120.903281,10.5616907 120.55,10.194 C120.150247,9.81101979 119.608538,9.61268321 119.056,9.647 C118.505386,9.61155944 117.965394,9.81019802 117.569,10.194 C117.219819,10.5638023 117.032644,11.0576563 117.049,11.566 C117.032557,12.0675486 117.218927,12.5545613 117.566,12.917 L117.569,12.917 Z M134.169,31.547 L137.523,31.547 L137.523,15.7 L133.964,15.7 L133.964,27.082 C133.290622,28.3625424 131.902097,29.1004446 130.464,28.942 C128.794,28.942 127.960667,27.9363333 127.964,25.925 L127.964,15.7 L124.404,15.7 L124.404,25.969 C124.296522,27.5372903 124.768353,29.0904886 125.73,30.334 C126.740919,31.391929 128.170284,31.9449834 129.63,31.843 C131.31881,31.9426824 132.960048,31.262304 134.083,29.997 L134.169,31.547 Z M141.063,15.697 L141.063,31.547 L144.623,31.547 L144.623,20.062 C145.185176,18.9184814 146.383921,18.2293611 147.655,18.319 C148.42935,18.2166941 149.207711,18.4763482 149.765554,19.0230617 C150.323397,19.5697751 150.598682,20.3427458 150.512,21.119 L150.512,31.549 L154.071,31.549 L154.057,20.68 C154.237253,20.016359 154.611998,19.4218517 155.133,18.973 C155.693727,18.5221793 156.399166,18.2904685 157.118,18.321 C157.911052,18.2434036 158.700954,18.496693 159.301,19.021 C159.791986,19.6487268 160.0274,20.4389187 159.96,21.233 L159.96,31.546 L163.519,31.546 L163.519,21.132 C163.612669,19.5945065 163.147021,18.0750241 162.208,16.854 C161.184724,15.820296 159.758038,15.2898612 158.308,15.404 C156.376439,15.3248165 154.53959,16.2432414 153.444,17.836 C152.641238,16.199226 150.908773,15.2306389 149.094,15.404 C147.352572,15.3211105 145.66883,16.0390308 144.523,17.353 L144.423,15.697 L141.056,15.697 L141.063,15.697 Z" id="ADMedium" fill="#FFFFFF"></path>
    </g>
</svg>