<?xml version="1.0" encoding="UTF-8" standalone="no"?>
<svg width="48px" height="195px" viewBox="0 0 48 195" version="1.1" xmlns="http://www.w3.org/2000/svg" xmlns:xlink="http://www.w3.org/1999/xlink">
    <!-- Generator: Sketch 39.1 (31720) - http://www.bohemiancoding.com/sketch -->
    <title>icons</title>
    <desc>Created with Sketch.</desc>
    <defs></defs>
    <g id="Page-1" stroke="none" stroke-width="1" fill="none" fill-rule="evenodd">
        <path d="M30.0273441,12.0006212 L24.0524619,5.96442474 L18.0775796,12.0006212 L30.0273441,12.0006212 Z M12.1225551,4.99791766 L16.2779091,10.9932776 L22.2123697,4.99791766 L12.1225551,4.99791766 Z M43.4805751,12.0006212 L37.8561365,6.1165758 L33.777934,12.0006212 L43.4805751,12.0006212 Z M25.892554,4.99791766 L31.9651577,11.1328383 L36.2172405,4.99791766 L25.892554,4.99791766 Z M4.5225393,12.0006212 L10.3421457,5.91239967 L14.5618616,12.0006212 L4.5225393,12.0006212 Z M15.2434007,13.9541407 L4.15340014,13.9541407 L22.2432756,39.9614774 L15.2434007,13.9541407 Z M47,12.8063765 L37.6357843,3 L10.3666273,3.01067271 L1,12.8249387 L23.9949857,46 L47,12.8063765 Z M30.9609961,13.9541407 L23.9759676,39.1596054 L17.290787,13.9541407 L30.9609961,13.9541407 Z M33.0078359,13.9541407 L25.8001036,40.001337 L43.8532851,13.9541407 L33.0078359,13.9541407 Z" id="Combined-Shape-Copy" fill="#FFFFFF"></path>
        <path d="M48,88 L48,51 L0,51 L0,88 L48,88 Z M19,88 L17,88 L17,93 L19,93 L19,88 Z M31,88 L29,88 L29,93 L31,93 L31,88 Z M2,86 L46,86 L46,78 L2,78 L2,86 Z M2,53 L46,53 L46,76 L2,76 L2,53 Z M27,81 L27,83 L21,83 L21,81 L27,81 Z M33,93 L33,95 L15,95 L15,93 L33,93 Z" id="Combined-Shape" fill="#FFFFFF"></path>
        <path d="M25,129.082958 L25,103 L23,103 L23,129.082958 C20.1622867,129.559037 18,132.027004 18,135 C18,138.313708 20.6862915,141 24,141 C27.3137085,141 30,138.313708 30,135 C30,132.027004 27.8377133,129.559037 25,129.082958 L25,129.082958 Z M40,114.917042 L40,141 L38,141 L38,114.917042 C35.1622867,114.440963 33,111.972996 33,109 C33,105.686292 35.6862915,103 39,103 C42.3137085,103 45,105.686292 45,109 C45,111.972996 42.8377133,114.440963 40,114.917042 L40,114.917042 Z M10,125.917042 L10,141 L8,141 L8,125.917042 C5.16228666,125.440963 3,122.972996 3,120 C3,117.027004 5.16228666,114.559037 8,114.082958 L8,103 L10,103 L10,114.082958 C12.8377133,114.559037 15,117.027004 15,120 C15,122.972996 12.8377133,125.440963 10,125.917042 L10,125.917042 Z M9,124 C11.209139,124 13,122.209139 13,120 C13,117.790861 11.209139,116 9,116 C6.790861,116 5,117.790861 5,120 C5,122.209139 6.790861,124 9,124 L9,124 Z M39,113 C41.209139,113 43,111.209139 43,109 C43,106.790861 41.209139,105 39,105 C36.790861,105 35,106.790861 35,109 C35,111.209139 36.790861,113 39,113 L39,113 Z M24,139 C26.209139,139 28,137.209139 28,135 C28,132.790861 26.209139,131 24,131 C21.790861,131 20,132.790861 20,135 C20,137.209139 21.790861,139 24,139 L24,139 Z" id="Combined-Shape" fill="#FFFFFF"></path>
        <path d="M27,188.751125 L27,192 L21,192 L21,188.751125 C18.2650302,188.292284 15.7391945,187.216689 13.5703969,185.672244 L11.2720779,187.970563 L7.02943725,183.727922 L9.32775623,181.429603 C7.78331125,179.260805 6.70771632,176.73497 6.24887532,174 L3,174 L3,168 L6.24887532,168 C6.70771632,165.26503 7.78331125,162.739195 9.32775623,160.570397 L7.02943725,158.272078 L11.2720779,154.029437 L13.5703969,156.327756 C15.7391945,154.783311 18.2650302,153.707716 21,153.248875 L21,150 L27,150 L27,153.248875 C29.7349698,153.707716 32.2608055,154.783311 34.4296031,156.327756 L36.7279221,154.029437 L40.9705627,158.272078 L38.6722438,160.570397 C40.2166887,162.739195 41.2922837,165.26503 41.7511247,168 L45,168 L45,174 L41.7511247,174 C41.2922837,176.73497 40.2166887,179.260805 38.6722438,181.429603 L40.9705627,183.727922 L36.7279221,187.970563 L34.4296031,185.672244 C32.2608055,187.216689 29.7349698,188.292284 27,188.751125 Z M41.2309045,160.840163 C42.171359,162.431722 42.8975892,164.164895 43.3699126,166 L47,166 L47,176 L43.3699126,176 C42.8975892,177.835105 42.171359,179.568278 41.2309045,181.159837 L43.7989899,183.727922 L36.7279221,190.79899 L34.1598367,188.230905 C32.568278,189.171359 30.835105,189.897589 29,190.369913 L29,194 L19,194 L19,190.369913 C17.164895,189.897589 15.431722,189.171359 13.8401633,188.230905 L11.2720779,190.79899 L4.20101013,183.727922 L6.76909545,181.159837 C5.82864096,179.568278 5.1024108,177.835105 4.63008743,176 L1,176 L1,166 L4.63008743,166 C5.1024108,164.164895 5.82864096,162.431722 6.76909545,160.840163 L4.20101013,158.272078 L11.2720779,151.20101 L13.8401633,153.769095 C15.431722,152.828641 17.164895,152.102411 19,151.630087 L19,148 L29,148 L29,151.630087 C30.835105,152.102411 32.568278,152.828641 34.1598367,153.769095 L36.7279221,151.20101 L43.7989899,158.272078 L41.2309045,160.840163 Z M24,176.875 C27.2446729,176.875 29.875,174.244673 29.875,171 C29.875,167.755327 27.2446729,165.125 24,165.125 C20.7553271,165.125 18.125,167.755327 18.125,171 C18.125,174.244673 20.7553271,176.875 24,176.875 Z M24,174.625 C26.0020322,174.625 27.625,173.002032 27.625,171 C27.625,168.997968 26.0020322,167.375 24,167.375 C21.9979678,167.375 20.375,168.997968 20.375,171 C20.375,173.002032 21.9979678,174.625 24,174.625 Z" id="Combined-Shape" fill="#FFFFFF"></path>
    </g>
</svg>