<svg width="164" height="42" viewBox="0 0 164 42" xmlns="http://www.w3.org/2000/svg"><title>main-logo.png</title><g fill="none" fill-rule="evenodd"><path fill="#E8183F" d="M16 0h63v42H0z"/><path d="M32.586 31.547h3.867l-8.071-21.328h-3.325L17 31.547h3.853l1.728-4.966h8.262l1.743 4.966zm-5.874-16.8l3.091 8.848h-6.182l3.091-8.848zm18.416 16.8c1.786.034 3.55-.395 5.12-1.245a8.49 8.49 0 0 0 3.442-3.545 11.3 11.3 0 0 0 1.209-5.332v-1.07a11.341 11.341 0 0 0-1.2-5.3 8.585 8.585 0 0 0-3.391-3.574 9.877 9.877 0 0 0-5.017-1.26h-6.3v21.328h6.138l-.001-.002zm.161-18.34a5.353 5.353 0 0 1 4.38 1.828 8.122 8.122 0 0 1 1.509 5.292v1.185a7.918 7.918 0 0 1-1.589 5.226 5.57 5.57 0 0 1-4.476 1.821h-2.417V13.207h2.593zm13.148-2.988v21.328h3.691v-7.031l-.366-9.39 6.284 16.421h2.652l6.3-16.436-.367 9.4v7.031h3.692V10.219h-4.79l-6.138 16.347-6.152-16.347h-4.806zM94.76 31.056a6.405 6.405 0 0 0 2.542-2.2l-1.919-1.831A4.82 4.82 0 0 1 91.396 29a3.937 3.937 0 0 1-2.894-1.143 4.762 4.762 0 0 1-1.311-3.105h10.357v-1.436a8.737 8.737 0 0 0-1.765-5.844 6.223 6.223 0 0 0-5-2.066 6.8 6.8 0 0 0-3.691 1.04 6.968 6.968 0 0 0-2.571 2.908 9.516 9.516 0 0 0-.915 4.241v.439a7.726 7.726 0 0 0 2.1 5.676 7.363 7.363 0 0 0 5.485 2.132 7.96 7.96 0 0 0 3.566-.786h.003zm-1.677-11.88c.615.766.95 1.718.952 2.7v.264h-6.782a5.314 5.314 0 0 1 1.15-2.857 3.31 3.31 0 0 1 4.677-.107h.003zm8.314 10.423a5.413 5.413 0 0 0 4.5 2.241 5.25 5.25 0 0 0 4.263-1.934l.176 1.641h3.222v-22.5h-3.559v8.115a5.174 5.174 0 0 0-4.073-1.758 5.443 5.443 0 0 0-4.555 2.22 9.421 9.421 0 0 0-1.7 5.881 9.768 9.768 0 0 0 1.723 6.095l.003-.001zm2.776-9.91a3.04 3.04 0 0 1 2.666-1.37 3.311 3.311 0 0 1 3.164 1.905v6.767a3.362 3.362 0 0 1-3.194 1.948 3.017 3.017 0 0 1-2.644-1.355 6.6 6.6 0 0 1-.93-3.772 7.347 7.347 0 0 1 .935-4.123h.003zm16.655-3.992h-3.562v15.85h3.559V15.7l.003-.003zm-3.259-2.78c.398.38.938.575 1.487.539a1.994 1.994 0 0 0 1.494-.539 1.85 1.85 0 0 0 .527-1.351 1.893 1.893 0 0 0-.527-1.372 1.982 1.982 0 0 0-1.494-.547 1.957 1.957 0 0 0-1.487.547c-.35.37-.536.864-.52 1.372-.016.502.17.989.517 1.351h.003zm16.6 18.63h3.354V15.7h-3.559v11.382a3.519 3.519 0 0 1-3.5 1.86c-1.67 0-2.503-1.006-2.5-3.017V15.7h-3.56v10.269a6.418 6.418 0 0 0 1.326 4.365 4.92 4.92 0 0 0 3.9 1.509c1.689.1 3.33-.58 4.453-1.846l.086 1.55zm6.894-15.85v15.85h3.56V20.062a3.133 3.133 0 0 1 3.032-1.743 2.54 2.54 0 0 1 2.857 2.8v10.43h3.559l-.014-10.869a3.445 3.445 0 0 1 1.076-1.707 2.967 2.967 0 0 1 1.985-.652 2.89 2.89 0 0 1 2.183.7c.491.628.726 1.418.659 2.212v10.313h3.559V21.132a6.381 6.381 0 0 0-1.311-4.278 4.942 4.942 0 0 0-3.9-1.45 5.624 5.624 0 0 0-4.864 2.432 4.381 4.381 0 0 0-4.35-2.432 5.705 5.705 0 0 0-4.571 1.949l-.1-1.656h-3.367.007z" fill="#FFF"/></g></svg>